<svg width="16" height="18" viewBox="0 0 16 18" fill="none" xmlns="http://www.w3.org/2000/svg">
<path d="M13.6022 0H2.02524C1.22933 0 0.585361 0.998308 0.585361 2.21846L0.578125 15.5292C0.578125 16.7494 1.22933 17.7477 2.02524 17.7477H13.6022C14.3981 17.7477 15.0493 16.7494 15.0493 15.5292V2.21846C15.0493 0.998308 14.3981 0 13.6022 0ZM13.3128 4.71423L8.1972 9.61703C7.96566 9.83888 7.66177 9.83888 7.43023 9.61703L2.31467 4.71423C2.13378 4.53675 2.02524 4.23726 2.02524 3.91559C2.02524 3.1724 2.55344 2.72871 2.96587 3.11694L7.81371 7.76462L12.6616 3.11694C13.074 2.72871 13.6022 3.1724 13.6022 3.91559C13.6022 4.23726 13.4936 4.53675 13.3128 4.71423Z" fill="#FFFDFD"/>
</svg>
