<svg width="60" height="61" viewBox="0 0 60 61" fill="none" xmlns="http://www.w3.org/2000/svg">
<path d="M7.9 10.3V50.8C3 45.4 0 38.3 0 30.5C0 22.7 3 15.6 7.9 10.3Z" fill="#B5E93B"/>
<path d="M11.1016 14.7002L28.4016 49.4002H11.1016V14.7002Z" fill="#B5E93B"/>
<path d="M30 45.5L13 11.6H47L30 45.5Z" fill="#B5E93B"/>
<path d="M30.0008 0.5C37.8008 0.5 44.9008 3.5 50.2008 8.4H9.80078C15.1008 3.5 22.2008 0.5 30.0008 0.5Z" fill="#B5E93B"/>
<path d="M48.9016 49.4002H31.6016L48.9016 14.7002V49.4002Z" fill="#B5E93B"/>
<path d="M50.2008 52.6001C44.9008 57.5001 37.8008 60.5001 30.0008 60.5001C22.2008 60.5001 15.1008 57.5001 9.80078 52.6001H50.2008Z" fill="#B5E93B"/>
<path d="M52.1016 50.6998V10.2998C57.0016 15.5998 60.0016 22.6998 60.0016 30.4998C60.0016 38.2998 57.0016 45.3998 52.1016 50.6998Z" fill="#B5E93B"/>
</svg>
