<svg width="54" height="47" viewBox="0 0 54 47" fill="none" xmlns="http://www.w3.org/2000/svg">
<path d="M20.6094 23.1379C20.6094 22.4476 21.169 21.8879 21.8594 21.8879H48.3331C49.0234 21.8879 49.5831 22.4476 49.5831 23.1379V40.176H20.6094V23.1379Z" fill="#4A4A4A" stroke="#B5E93B" stroke-width="1.5"/>
<path d="M16.4883 42.4932H53.5791V43.989C53.5791 45.6459 52.236 46.989 50.5791 46.989H19.4883C17.8314 46.989 16.4883 45.6459 16.4883 43.989V42.4932Z" fill="#B5E93B"/>
<rect x="32.2227" y="43.6172" width="6.74379" height="1.12396" rx="0.561982" fill="#140754"/>
<path d="M22.4898 13.5133C15.9898 12.5133 13.4899 16.0132 12.7156 22.0278" stroke="#FFFDFD" stroke-width="2" stroke-linecap="round"/>
<path d="M22.9883 8.01324C12.9251 7.0474 7.23036 13.0162 6.82685 21.8931" stroke="#FFFDFD" stroke-width="2" stroke-linecap="round"/>
<path d="M22.9696 2.19653C10.173 0.932784 1.46965 9.19648 1.46951 21.6965" stroke="#FFFDFD" stroke-width="2" stroke-linecap="round"/>
</svg>
