<svg xmlns="http://www.w3.org/2000/svg" xmlns:xlink="http://www.w3.org/1999/xlink" viewBox="0,0,256,256" width="100px" height="100px" fill-rule="nonzero"><g fill="#b5e93b" fill-rule="nonzero" stroke="none" stroke-width="1" stroke-linecap="butt" stroke-linejoin="miter" stroke-miterlimit="10" stroke-dasharray="" stroke-dashoffset="0" font-family="none" font-weight="none" font-size="none" text-anchor="none" style="mix-blend-mode: normal"><g transform="scale(5.12,5.12)"><path d="M14.18164,5c-5.05939,0 -9.18164,4.12226 -9.18164,9.18164v21.63672c0,5.05938 4.12226,9.18164 9.18164,9.18164h21.63672c5.05938,0 9.18164,-4.12226 9.18164,-9.18164v-21.63672c0,-5.05939 -4.12226,-9.18164 -9.18164,-9.18164zM14.18164,7h21.63672c3.97861,0 7.18164,3.20303 7.18164,7.18164v21.63672c0,3.97861 -3.20303,7.18164 -7.18164,7.18164h-21.63672c-3.97862,0 -7.18164,-3.20303 -7.18164,-7.18164v-21.63672c0,-3.97862 3.20303,-7.18164 7.18164,-7.18164zM26.99805,13.0332c2.078,4.156 3.28264,6.49956 2.30664,12.22656c-2.226,-1.486 -10.44969,-8.10777 -12.30469,-10.25977c1.336,2.375 5.17963,7.58588 6.51563,8.92188c-2.375,-1.632 -10.01953,-7.64453 -10.01953,-7.64453c0,0 6.53144,9.87094 12.02344,13.21094c-2.078,0.668 -6.59003,3.39822 -14.45703,-1.42578c2.004,2.746 5.55138,8.25533 14.23438,7.73633c3.043,-0.148 4.89652,-1.11325 6.60352,-1.78125c1.707,-0.668 3.34,-0.59431 4.75,1.92969c0.297,-2.301 0.37109,-4.45334 -2.00391,-6.90234c0,0 2.34756,-8.94972 -7.64844,-16.01172z"></path></g></g></svg>